PathFileType	4	(X/Y/Z)	pose2sim_0-693.trc
DataRate	CameraRate	NumFrames	NumMarkers	Units	OrigDataRate	OrigDataStartFrame	OrigNumFrames
50	50	6	22	m	50	260	694
Frame#	Time	Hip			RHip			RKnee			RAnkle			RBigToe			RSmallToe			RHeel			LHip			LKnee			LAnkle			LBigToe			LSmallToe			LHeel			Neck			Head			Nose			RShoulder			RElbow			RWrist			LShoulder			LElbow			LWrist			
		X1	Y1	Z1	X2	Y2	Z2	X3	Y3	Z3	X4	Y4	Z4	X5	Y5	Z5	X6	Y6	Z6	X7	Y7	Z7	X8	Y8	Z8	X9	Y9	Z9	X10	Y10	Z10	X11	Y11	Z11	X12	Y12	Z12	X13	Y13	Z13	X14	Y14	Z14	X15	Y15	Z15	X16	Y16	Z16	X17	Y17	Z17	X18	Y18	Z18	X19	Y19	Z19	X20	Y20	Z20	X21	Y21	Z21	X22	Y22	Z22	
260	5.2	0.15042931574441926	0.9095562499905778	-0.07868358294275986	0.05105214713170518	0.8984619152992351	-0.0777082608149313	0.007793909372298699	0.4949745345765124	-0.12262993611776254	-0.028031772485300765	0.09249252806479064	-0.14450946779838053	-0.07375963790574161	0.044071010958338826	0.056045837498845535	-0.10618336015374101	0.047159221017704166	-0.003994830212247057	-0.015455423345021348	0.0446017735703019	-0.18459857951904196	0.2525651529529522	0.8991284244675953	-0.07980673776621909	0.28552317545894906	0.49214843097503386	-0.11477700208266506	0.3105852714062708	0.08933847336663137	-0.13154824436573012	0.348731930970307	0.044857363131487554	0.06553559203309635	0.38274826285877106	0.04781755311707374	-0.0038324825497926115	0.296341797411751	0.0426432186484585	-0.17408871734818185	0.15866645426441944	1.480206634651491	-0.07205803931741446	0.1629341843228833	1.7092997628450024	-0.026072964389278707	0.14770954243198428	1.5922073586923609	0.07429358490672375	0.0037369325169929286	1.385354526423485	-0.09640094523915191	-0.07573662257449233	1.1284237161828539	-0.08931161073834959	-0.09954506216238854	1.310645091974016	0.029994851071142067	0.31188758688589135	1.3849652508898844	-0.09161006348422283	0.3881824610203803	1.1432714830966388	-0.09621517431623058	0.4052835190927381	1.3068911286676566	0.02787377543882825
261	5.22	0.15288363622709633	0.9007766567603155	-0.08386350301810777	0.047545027806784414	0.8934714686866727	-0.08350463037750593	0.008334518008507208	0.49097847365993263	-0.12015404455700796	-0.028222703068641202	0.09909191874112845	-0.13959300744817912	-0.07322149765425955	0.050655350799732636	0.053046766314732485	-0.10860215011227706	0.05274144246575655	-0.01164540552099231	-0.011128021830508213	0.058802852023051966	-0.18202751112140408	0.2540733985385266	0.8925308871433056	-0.07920306642798244	0.2881889199498927	0.4869040296217863	-0.1179590690631156	0.31406161495927776	0.10258842359048087	-0.13693664009658887	0.35591440897207033	0.048663360978695724	0.03649327940811978	0.3880767337076633	0.05444336635285507	-0.009022785405632934	0.3004199340909642	0.056805701565870496	-0.17358905228224836	0.15666681335900776	1.479935115921202	-0.06568938018919562	0.16489207028858013	1.7094043186747716	-0.033665597170573554	0.14704606960095595	1.5947783403667326	0.05826004683582661	0.0018501642394307704	1.388894262207952	-0.09558573676551033	-0.07917464291450793	1.1350380892613234	-0.09067881670517382	-0.10174018687287856	1.3099735587874084	0.03824325121101171	0.31453018414908096	1.3844485681087726	-0.09502874483378809	0.38360491662444834	1.1423395826700895	-0.0923029479728431	0.3977964426668896	1.3066644992671135	0.058196744791856894
262	5.24	0.15057878845302214	0.9007709871118336	-0.08142232192102403	0.048508252426146085	0.8923257098502471	-0.08262056052842259	0.009577538711013146	0.49482857586334517	-0.12694429915821245	-0.02645608491081336	0.09950113962145668	-0.14459396210608938	-0.07318366592545567	0.05099561855291113	0.0494910653867359	-0.1078176815661782	0.0532532459012599	-0.014201221710404445	-0.013758147578100262	0.059320113737091215	-0.1843913081461281	0.25272075250559534	0.8926350133337368	-0.08173240546198472	0.28652956246972056	0.49049622302020807	-0.11681813614272621	0.31651894879893255	0.10363411791140388	-0.13112818222348355	0.3549604831741522	0.04733020535709319	0.03695570524251726	0.3866632096484268	0.052924110253396876	-0.008489553250949336	0.30249391165047135	0.056937220455563466	-0.16942915399188704	0.15860665729063994	1.478053612566409	-0.07313640501851229	0.1682159839252368	1.7111277817922574	-0.03177259457740782	0.1466921867131355	1.5934158717366234	0.05737977399745739	0.0017779690217028278	1.386273585835734	-0.09650796240583864	-0.07732867527525437	1.1337155980638032	-0.08957727545224188	-0.10383787262142774	1.3127409530209175	0.03810591034550092	0.3143473714454532	1.3843842282900507	-0.09883785443072395	0.38160436998226616	1.140981110671583	-0.09160658714466036	0.4001493663815098	1.3031631543133357	0.04466843549534836
263	5.26	0.15079971916034562	0.9031376920857028	-0.08547024840935773	0.04862511498888988	0.8923455341280416	-0.08032297413729321	0.006744407428751602	0.4946743504481389	-0.122291259481596	-0.025421379301999086	0.10018092465797028	-0.14272256203219752	-0.07303805744915173	0.052925790646217115	0.04447382211532811	-0.10683420056394576	0.05350651283616839	-0.016173932044934485	-0.011432128693559598	0.05852275693346772	-0.18285172941186514	0.251508599917305	0.8927021459787028	-0.08266150475761753	0.2854962566023141	0.4889416323650327	-0.12210642664425177	0.31590871971188794	0.10153188005870471	-0.13000874555104408	0.35373585724622547	0.049448132153460514	0.03678579340043613	0.38709274785529857	0.05349916097088827	-0.012945234566080974	0.3031631548618589	0.05605283949946114	-0.16531685401786447	0.15862129812309644	1.4772009079899788	-0.07636602380978744	0.166848344470566	1.71090487648739	-0.03179059876896689	0.14963894347065382	1.5940516057106562	0.060558818969934265	0.003164389624557052	1.3880375830383267	-0.1029160566525743	-0.07738031527617517	1.133774739685402	-0.09296139470093347	-0.10660647206693513	1.311710607305795	0.04108275785130807	0.31451913667037446	1.3836219224658735	-0.09706519698160661	0.38183692226679156	1.1425463467609334	-0.09127512567156454	0.40166749801297524	1.306230636499112	0.042436608418001176
264	5.28	0.15049176405141335	0.9097151116818117	-0.08107874996121184	0.048638600769077014	0.8976276522469001	-0.08415922880617595	0.00810871135383172	0.4963764736197105	-0.12040356792113176	-0.028626361142716023	0.0933266563272273	-0.14350829730911624	-0.07772356455167669	0.043494029821664164	0.05868748245205369	-0.10770478180442626	0.04782719855438198	-0.003409449467273129	-0.01693022991519938	0.04188192667485169	-0.1884089884802357	0.2527047745491398	0.8981858662258682	-0.08096568373571965	0.28590067831757104	0.49480660211896693	-0.12066847776879852	0.3099111969618208	0.0932133361832942	-0.13305339027968865	0.34637327478275015	0.04394769272924994	0.0646649637350156	0.3818678432041819	0.04762823538334435	-0.0015876110036413596	0.2979675984837016	0.045763289623775995	-0.17690073907162981	0.15990911684256623	1.4801196966277912	-0.07513724486960112	0.16884186338211496	1.7089361887142203	-0.03394351132464324	0.15064818335124566	1.5947038897775632	0.07994688396061853	0.00517724013991411	1.3876033323485004	-0.09941762526992097	-0.07193786253541043	1.1275674364454398	-0.09974168663826811	-0.10392051271745238	1.3009629874942858	0.04264663553243771	0.31327014739915077	1.3851376529989003	-0.09942688536845412	0.384689190933874	1.145009003963708	-0.09884950590546983	0.4081851863486614	1.2932781832941596	0.04230654938255286
265	5.3	0.15029796619559524	0.901158807710604	-0.07797654904682084	0.04764280463751862	0.8926393230070288	-0.08382962102857255	0.00842323823744934	0.4926194853576472	-0.11925332364300238	-0.027698536570176686	0.10059320447368682	-0.14174122115223967	-0.08003657491200383	0.05204231401762273	0.05468420322422589	-0.11262370984955154	0.053730841973825265	-0.014877261345384625	-0.01096430448228649	0.05855831694106243	-0.17802264319914693	0.25443152022028065	0.8927783682693188	-0.08186001337956111	0.28600576081986817	0.4897327738531364	-0.11800400807856794	0.3148253014019925	0.10340826147159665	-0.13642993856267374	0.35491055827162993	0.04997045095161308	0.03503419278962462	0.3864634162488625	0.051583353507509234	-0.012702482905051776	0.3004135760479445	0.05673824442936784	-0.17940061080936048	0.15848055962484522	1.4792407077305552	-0.07803974250745283	0.16674205394968428	1.7103425555445861	-0.03386916807296267	0.14797547226075233	1.5954013440987185	0.07045289868680338	0.0062112566028567585	1.386947771269415	-0.10054868612439331	-0.07482515374849023	1.131236131441053	-0.08974494050040746	-0.11299044696377769	1.3032438513978792	0.0398928896113644	0.31788329843692525	1.3850984079570159	-0.10032277707358951	0.37996764700572744	1.1389200294114192	-0.09355450174336989	0.4051759190357741	1.2907681557540194	0.04781818250374787
